<svg xmlns="http://www.w3.org/2000/svg" xmlns:xlink="http://www.w3.org/1999/xlink" xml:space="preserve" version="1.1" style="shape-rendering:geometricPrecision;text-rendering:geometricPrecision;image-rendering:optimizeQuality;" viewBox="0 0 333 416.25" x="0px" y="0px" fill-rule="evenodd" clip-rule="evenodd"><defs><style type="text/css">
   
    .fil0 {fill:black}
    .fil1 {fill:black;fill-rule:nonzero}
   
  </style></defs><g><path class="fil0" d="M181 229c76,0 137,4 137,9 0,6 -61,10 -137,10 -75,0 -137,-4 -137,-10 0,-5 62,-9 137,-9z"/><g><path class="fil1" d="M279 141c26,4 44,28 41,54 -4,26 -28,44 -55,41 -14,-3 -27,-11 -34,-24 -12,27 -39,15 -43,-15 -40,-5 -39,14 -57,15 -3,8 -9,16 -21,21 -9,4 -19,4 -29,-1 -18,18 -64,-14 -46,-91 15,-63 57,-64 66,-48 24,-4 42,17 43,34 17,6 10,23 50,30 13,-29 38,-26 43,-11l0 0c1,3 2,5 2,8 10,-10 25,-15 40,-13zm-12 86c21,3 41,-12 44,-33 3,-21 -12,-41 -33,-44 -51,-8 -62,69 -11,77zm-40 -82c-11,1 -16,45 -15,61 2,27 14,-2 14,-5 0,-11 -4,-14 1,-29 3,-7 7,-9 2,-23l0 0 -2 -4zm-23 65c-3,-19 1,-50 12,-66 -19,9 -27,58 -11,72 0,-2 -1,-4 -1,-6zm-16 -22l3 -22c-46,-9 -46,-45 -60,-26 -11,13 -25,85 16,55 10,-8 28,-8 41,-7zm-53 -61c-2,-15 -18,-32 -39,-23l0 0c-30,14 -41,95 -17,116 3,2 6,4 10,6 15,5 28,-4 33,-16 -20,-12 -11,-77 13,-83zm-61 100c-30,-27 -17,-115 18,-131 -9,-10 -34,6 -46,38 -6,18 -8,45 -3,63 6,26 23,34 31,30z"/><path class="fil1" d="M264 167c-3,1 -5,0 -6,-3 -1,-2 0,-4 2,-5 20,-8 42,5 44,26 0,2 -1,4 -4,5 -2,0 -4,-2 -5,-4 -2,-15 -17,-25 -31,-19z"/><path class="fil1" d="M251 179c-3,5 -11,2 -8,-3 1,-3 2,-5 4,-7 4,-5 11,1 7,5 -1,2 -2,3 -3,5z"/></g></g></svg>