<svg xmlns="http://www.w3.org/2000/svg" xmlns:xlink="http://www.w3.org/1999/xlink" version="1.1" x="0px" y="0px" viewBox="0 0 96 120" enable-background="new 0 0 96 96" xml:space="preserve"><path d="M61.603,21.681l1.396,2.422c-4.271-1.453-10.986-2.976-15.862-0.5c-0.244-0.188-0.459-0.352-0.632-0.479  c-2.566-1.899-9.489-0.405-14.143,0.917l1.716-3.063l-11.814-6.62L3.458,47.921l11.813,6.62l1.253-2.237  c0.529,1.143,1.181,2.429,1.846,3.451c-0.446,0.409-0.753,0.682-0.882,0.776c-2.246,1.322-0.911,3.965,0.064,5.894l0.212,0.421  c0.908,1.814,3.08,2.396,4.944,2.396c0.121,0,0.236-0.008,0.354-0.013c0.151,1.562,0.655,3.648,2.215,4.665  c0.452,0.295,1.472,0.801,3.133,0.801c0.184,0,0.385-0.016,0.584-0.028c0.412,2.045,1.663,4.332,2.512,5.03  c0.882,0.726,2.031,1.088,3.442,1.088c0.194,0,0.401-0.02,0.604-0.033c0.28,1.785,1.384,3.654,3.964,4.17  c0.591,0.118,1.176,0.181,1.777,0.181c2.023,0,4.237-0.707,7.5-2.355c0.499,0.595,1.127,1.128,1.902,1.53  c0.887,0.46,1.854,0.703,2.797,0.703c1.721,0,3.161-0.798,3.853-2.134c0.19-0.367,0.291-0.754,0.353-1.146  c0.617,0.15,1.242,0.231,1.858,0.231c2.268,0,4.158-1.033,5.055-2.764c0.415-0.799,0.577-1.703,0.505-2.627  c0.778,0.195,1.562,0.298,2.33,0.298c0,0,0,0,0,0c2.508,0,4.573-1.094,5.522-2.926c0.628-1.213,0.706-2.578,0.328-3.92  c0.246,0.021,0.491,0.047,0.736,0.047c2.72,0,5.004-1.275,6.111-3.41c1.233-2.379,0.675-5.281-1.165-7.502  c0.327-0.503,0.643-1.083,0.93-1.685l0.905,1.57l11.733-6.764L73.335,14.917L61.603,21.681z M14.121,50.457l-6.58-3.687  l15.872-28.329l6.58,3.687L14.121,50.457z M18.364,49.021l11.875-21.192c5.979-1.957,13.087-3.325,14.483-2.294  c2.843,2.101,16.756,13.583,18.04,14.643c0.357,0.428,0.93,1.413-0.072,2.539c-1.211,1.364-3.182,0.969-3.764,0.813l-13.849-9.454  l-0.395-0.033c-0.272-0.021-6.764-0.533-11.929,1.7l1.19,2.754c1.066-0.461,2.217-0.781,3.354-1.009  c-5.753,5.623-12.728,12.398-16.701,16.176C19.819,52.349,18.95,50.45,18.364,49.021z M54.682,77.466  c-0.297,0.575-1.577,0.68-2.605,0.147c-1.141-0.593-1.67-1.659-1.381-2.217c0.165-0.316,0.621-0.514,1.19-0.514  c0.464,0,0.954,0.127,1.416,0.365c0.189,0.099,0.355,0.213,0.51,0.333c0.114,0.108,0.229,0.215,0.351,0.317  C54.681,76.447,54.883,77.078,54.682,77.466z M61.949,73.786c-0.372,0.717-1.266,1.145-2.392,1.145c-0.799,0-1.635-0.215-2.417-0.62  c-0.408-0.212-0.767-0.472-1.09-0.751c-0.081-0.074-0.161-0.147-0.247-0.219c-1.043-1.021-1.498-2.318-1.007-3.267  c0.372-0.716,1.265-1.144,2.39-1.144c0.799,0,1.636,0.215,2.42,0.622c1.008,0.522,1.826,1.324,2.243,2.2  C62.056,72.186,62.343,73.025,61.949,73.786z M70.307,68.531c-0.424,0.818-1.493,1.307-2.859,1.307c-1.088,0-2.241-0.3-3.335-0.868  c-2.549-1.321-4.019-3.757-3.21-5.318c0.425-0.818,1.494-1.307,2.861-1.307c1.087,0,2.241,0.3,3.335,0.867  c0.349,0.181,0.673,0.387,0.979,0.604c0.158,0.133,0.32,0.264,0.489,0.388C70.16,65.546,70.942,67.305,70.307,68.531z   M77.482,61.248c-0.582,1.121-1.871,1.791-3.448,1.791c-0.952,0-1.934-0.248-2.84-0.719c-0.245-0.127-0.468-0.275-0.688-0.426  c-0.189-0.158-0.384-0.313-0.589-0.462c-1.589-1.385-2.257-3.351-1.469-4.871c0.582-1.122,1.872-1.792,3.449-1.792  c0.952,0,1.933,0.248,2.839,0.719C77.228,56.779,78.459,59.363,77.482,61.248z M76.684,53.149c-0.185-0.112-0.371-0.224-0.566-0.325  c-1.331-0.689-2.79-1.055-4.22-1.055c-2.72,0-5.005,1.275-6.112,3.411c-0.696,1.343-0.815,2.853-0.463,4.313  c-0.522-0.088-1.044-0.149-1.559-0.149c-2.508,0-4.573,1.094-5.524,2.926c-0.594,1.147-0.697,2.432-0.387,3.703  c-0.222-0.021-0.445-0.043-0.666-0.043c-2.267,0-4.156,1.033-5.053,2.763c-0.514,0.991-0.631,2.101-0.422,3.2  c-1.641,0.053-3.01,0.832-3.678,2.122c-0.32,0.618-0.433,1.284-0.397,1.953c-4.116,2.098-5.88,2.341-7.531,2.011  c-1.2-0.24-1.542-1.086-1.614-1.794c1.825-0.542,3.909-1.447,6.261-2.738l-1.443-2.631c-7.428,4.077-9.548,2.852-9.89,2.569  c-0.473-0.434-1.259-2.217-1.5-3.341c1.669-0.563,3.651-1.547,5.994-3.22l-1.744-2.441c-6.534,4.668-9.146,3.066-9.254,2.996  c-0.542-0.354-0.83-1.742-0.895-2.938c1.918-1.001,5.358-3.15,6.546-3.899l-1.6-2.537c-2.829,1.783-6.283,3.846-6.926,4.065  c-0.934,0.311-3.187,0.244-3.592-0.567l-0.218-0.433c-0.323-0.639-0.836-1.655-0.944-2.161c2.359-1.927,16.263-15.505,22.81-21.92  c0.867-0.018,1.56,0.002,1.958,0.021l13.538,9.241l0.189,0.066c0.087,0.029,1.123,0.377,2.481,0.377  c1.445,0,3.254-0.394,4.669-1.984c2.391-2.689,1.026-5.52-0.029-6.641l-0.136-0.128c-0.486-0.402-9.568-7.903-14.931-12.205  c5.578-1.698,13.706,1.694,15.564,2.529l12.61,21.876C77.709,51.193,77.146,52.351,76.684,53.149z M81.917,50.915L65.7,22.782  l6.535-3.768l16.216,28.133L81.917,50.915z"/></svg>