<svg xmlns:dc="http://purl.org/dc/elements/1.1/" xmlns:cc="http://creativecommons.org/ns#" xmlns:rdf="http://www.w3.org/1999/02/22-rdf-syntax-ns#" xmlns:svg="http://www.w3.org/2000/svg" xmlns="http://www.w3.org/2000/svg" version="1.1" x="0px" y="0px" viewBox="0 0 100 125"><path d="m 5.90625,5 c 3.78841,2.7695 6.25158,6.34638 8,10.4375 -1.07287,0.14177 -2.10504,0.39055 -3.0625,0.75 C 3.68791,18.87404 3.017,26.7844 9.3125,33.875 c 3.84908,4.33521 9.39648,7.35864 14.78125,8.4375 0.23492,0.40849 0.49033,0.80422 0.71875,1.15625 4.23752,6.53091 9.55941,11.42258 15.5,13.96875 1.41118,2.978 2.1875,6.29226 2.1875,9.8125 0,2.31994 -0.3309,4.54641 -0.96875,6.65625 l -12.90625,0 L 21.875,95 l 55.78125,0 -6.75,-21.09375 -12.90625,0 C 57.362452,71.79618 57.03125,69.57022 57.03125,67.25 c 0,-3.51595 0.780259,-6.83803 2.1875,-9.8125 5.950157,-2.54273 11.286854,-7.42728 15.53125,-13.96875 0.215332,-0.33192 0.435069,-0.6916 0.65625,-1.0625 5.53555,-0.98904 11.314693,-4.03246 15.28125,-8.5 6.295522,-7.0906 5.624589,-15.03221 -1.53125,-17.71875 -1.063611,-0.3993 -2.234466,-0.64964 -3.4375,-0.78125 C 87.078103,11.20227 91.029181,7.31286 93.625,5 L 5.90625,5 z m 67.25,7.1875 5.84375,0 C 78.009283,28.25387 70.460249,46.02973 59.5625,52.125 68.185706,42.99329 73.311129,30.14856 73.15625,12.1875 z m 11.5625,6.5625 c 0.603429,0.11134 1.167877,0.26192 1.71875,0.46875 5.466052,2.05213 5.996373,8.11501 1.1875,13.53125 -2.716816,3.05994 -6.53178,5.25181 -10.34375,6.21875 2.526637,-5.03415 5.041205,-12.88985 6.375,-17.75 0.343752,-1.25258 1.0625,-2.46875 1.0625,-2.46875 z m -69.5625,0.03125 c 0.26269,0.80534 0.52125,1.60398 0.75,2.4375 1.34279,4.89288 3.89423,12.23063 6.4375,17.65625 C 18.66259,37.85961 14.99821,35.70451 12.375,32.75 7.56613,27.33376 8.09645,21.27088 13.5625,19.21875 c 0.51244,-0.19238 1.03543,-0.32789 1.59375,-0.4375 z" style="opacity:0.98999999;color:#000000;fill:#000000;fill-opacity:1;fill-rule:nonzero;stroke:none;stroke-width:366.79467773;marker:none;visibility:visible;display:inline;overflow:visible;enable-background:accumulate"/></svg>
